<?xml version="1.0" encoding="UTF-8"?>
<svg id="Layer_1" data-name="Layer 1" xmlns="http://www.w3.org/2000/svg" viewBox="0 0 1700.79 850.39">
  <defs>
    <style>
      .cls-1 {
        fill: #9d9d9c;
      }

      .cls-2 {
        fill: #578ec2;
      }
    </style>
  </defs>
  <g>
    <path class="cls-2" d="M572.8,413.79s-33.12-73.09-129.73-96.61c0,0-76.06-125.62-288.7-110.55,0,0,218.12,2.74,261.06,169.93l-146.4,37.23h303.77Z"/>
    <path class="cls-1" d="M372.5,362.86s-16.9-37.46-66.46-49.33c0,0-38.83-64.18-147.55-56.41,0,0,111.46,1.37,133.39,86.79l-74.92,19.19h155.31l.23-.23Z"/>
  </g>
  <g>
    <path class="cls-1" d="M155.88,475.94c0,25.09-16.4,44.85-45.84,44.85h-30.23v37.54c0,6.13-3.36,9.48-9.48,9.48h-12.25c-6.13,0-9.68-3.36-9.68-9.48v-119.35c0-6.13,3.56-9.48,9.68-9.48h51.97c29.64,0,45.84,21.54,45.84,46.43ZM124.27,476.13c0-11.46-7.31-20.15-18.38-20.15h-26.08v39.91h26.08c11.07,0,18.38-8.69,18.38-19.76Z"/>
    <path class="cls-1" d="M188.29,438.39c0-9.09,6.52-16,18.38-16s18.38,6.92,18.38,16-7.11,15.81-18.38,15.81-18.38-6.92-18.38-15.81ZM191.45,558.33v-82.59c0-6.13,3.36-9.48,9.48-9.48h11.46c6.13,0,9.68,3.36,9.68,9.48v82.59c0,6.13-3.56,9.48-9.68,9.48h-11.46c-6.13,0-9.48-3.36-9.48-9.48Z"/>
    <path class="cls-1" d="M273.65,605.16c-5.33-2.77-6.32-7.71-3.36-13.04l2.37-4.35c2.96-5.53,7.31-6.52,12.84-3.56,7.71,3.95,16.01,6.32,24.9,6.32,17.19,0,29.44-9.29,29.44-29.44v-7.51c-7.31,11.26-19.56,16.4-32.8,16.4-28.65,0-48.61-23.91-48.61-52.96s19.96-52.96,48.61-52.96c13.24,0,25.09,5.14,32.41,16.6v-5.73c0-5.73,3.56-8.69,9.68-8.69h10.87c6.13,0,9.48,3.36,9.48,9.48v84.57c0,38.93-25.69,53.94-56.31,53.94-15.81,0-28.85-3.56-39.52-9.09ZM340.04,517.03c-.2-16.2-10.47-28.85-26.08-28.85s-25.49,13.24-25.49,28.85,9.68,28.85,25.49,28.85,25.88-12.65,26.08-28.85Z"/>
    <path class="cls-1" d="M405.44,517.43c0-28.65,21.54-53.35,55.72-53.35,28.85,0,52.56,17.39,53.94,49.79.2,5.73-3.75,8.3-9.68,8.3h-70.74c-.4,12.05,11.66,23.71,31.22,23.71,7.31,0,14.82-1.78,22.53-6.13,5.34-2.96,9.68-2.57,13.44,1.98l2.17,2.77c3.95,4.74,3.56,10.08-1.78,14.03-11.66,8.5-25.29,11.46-38.33,11.46-36.36,0-58.49-23.51-58.49-52.56ZM486.46,505.18c-2.77-13.63-14.42-17.98-24.9-17.98s-22.72,4.74-26.08,17.98h50.98Z"/>
    <path class="cls-1" d="M543.76,517.03c0-29.24,24.11-52.96,56.31-52.96s56.31,23.71,56.31,52.96-24.11,52.96-56.31,52.96-56.31-23.51-56.31-52.96ZM627.34,517.23c0-16.01-12.05-28.26-27.27-28.26s-27.27,12.25-27.27,28.26,11.86,28.06,27.27,28.06,27.27-12.25,27.27-28.06Z"/>
    <path class="cls-1" d="M692.15,558.33v-82.59c0-6.13,3.36-9.48,9.48-9.48h11.66c6.13,0,9.48,3.36,9.48,9.48v6.72c4.94-11.66,15.81-18.38,30.82-18.38,27.27,0,37.15,21.34,37.15,45.25v49c0,6.13-3.56,9.48-9.68,9.48h-11.46c-6.13,0-9.48-3.36-9.48-9.48v-46.83c0-14.23-5.53-22.53-16.01-22.53s-21.34,8.1-21.34,27.07v42.29c0,6.13-3.36,9.48-9.48,9.48h-11.66c-6.13,0-9.48-3.36-9.48-9.48Z"/>
    <path class="cls-1" d="M826.91,549.64c-2.96-5.93.2-10.27,6.32-11.86l6.13-1.38c5.34-1.38,7.71,1.19,11.86,5.34,3.56,3.95,8.89,5.93,15.21,5.93,7.71,0,13.04-3.56,13.04-8.89,0-4.35-2.96-6.52-9.48-8.89l-12.45-4.35c-10.47-3.36-28.65-11.07-28.65-29.44s15.81-32.01,37.74-32.01c13.04,0,24.9,4.15,32.41,15.41,3.95,5.73.99,10.87-5.53,12.45l-5.53,1.38c-5.14,1.38-7.9-.4-11.46-3.75-2.77-2.77-6.32-3.75-9.88-3.75-6.32,0-10.27,3.95-10.27,8.69,0,4.35,3.95,6.52,9.29,8.3l12.65,4.74c20.95,6.92,28.45,18.18,28.85,30.63,0,21.34-18.97,31.81-40.9,31.81-17.98,0-32.6-6.72-39.32-20.35Z"/>
  </g>
  <g>
    <path class="cls-2" d="M1039.56,515.04c-4.64-10.71,1.07-18.21,12.14-21.07l15.35-3.57c10-2.5,15.36,1.79,21.07,11.07,8.21,13.21,23.92,22.14,44.99,22.14,24.28,0,40.35-10.71,40.35-27.14,0-12.5-9.64-22.5-28.57-28.92l-32.5-11.78c-29.64-9.64-66.06-31.78-66.42-70.35,0-45.71,39.64-74.27,88.56-74.27,38.92,0,66.42,17.14,79.99,45.71,5.36,10.36.36,18.57-10.36,21.78l-14.28,3.93c-10,2.86-16.07-1.07-22.14-9.64-6.43-10.71-17.5-16.43-32.5-16.43-17.85,0-33.21,8.93-33.21,25.35,0,8.93,3.93,18.57,26.07,26.78l32.49,11.78c48.92,16.43,67.13,42.14,67.85,73.56,0,48.92-41.78,74.99-94.99,74.99-46.78,0-80.7-20.71-93.92-53.92Z"/>
    <path class="cls-2" d="M1343.8,525.39l-25.71-47.14v69.63c0,11.07-6.07,17.14-17.14,17.14h-21.07c-11.07,0-17.14-6.07-17.14-17.14v-223.9c0-11.07,6.07-17.14,17.14-17.14h21.07c11.07,0,17.14,6.07,17.14,17.14v132.48l45.35-63.92c5.36-7.86,11.43-11.07,20.71-11.07h23.92c14.64,0,19.28,9.64,10.36,21.07l-49.28,63.92,23.57,38.21c8.93,13.57,15.35,18.57,26.78,18.57,2.14,0,6.43-.36,10.71-1.79,7.14-1.79,11.78-.71,14.64,5.36l7.86,15.71c2.86,6.07,1.07,12.86-8.21,17.5-13.21,7.14-27.14,8.93-36.42,8.93-32.14,0-50.35-17.14-64.28-43.56Z"/>
    <path class="cls-2" d="M1499.14,625.02l30-72.49-67.85-150.69c-5.36-11.78.36-20.35,13.21-20.35h24.28c10,0,16.78,4.29,20,13.93l37.5,99.63,37.85-99.63c3.57-9.64,10.36-13.93,20-13.93h23.21c12.86,0,18.21,8.21,13.21,20.35l-100.34,229.97c-3.93,9.28-10.36,13.21-20,13.21h-17.85c-12.86,0-18.21-8.21-13.21-20Z"/>
  </g>
  <g>
    <path class="cls-1" d="M692.15,363.17c0-3.8,2.72-6.69,7.68-6.69s7.68,2.89,7.68,6.69-2.97,6.61-7.68,6.61-7.68-2.89-7.68-6.61ZM693.47,413.29v-34.51c0-2.56,1.4-3.96,3.96-3.96h4.79c2.56,0,4.05,1.4,4.05,3.96v34.51c0,2.56-1.49,3.96-4.05,3.96h-4.79c-2.56,0-3.96-1.4-3.96-3.96Z"/>
    <path class="cls-1" d="M716.59,413.29v-34.51c0-2.56,1.4-3.96,3.96-3.96h4.87c2.56,0,3.96,1.4,3.96,3.96v2.81c2.06-4.87,6.61-7.68,12.88-7.68,11.39,0,15.52,8.92,15.52,18.91v20.48c0,2.56-1.49,3.96-4.05,3.96h-4.79c-2.56,0-3.96-1.4-3.96-3.96v-19.57c0-5.95-2.31-9.41-6.69-9.41s-8.92,3.39-8.92,11.31v17.67c0,2.56-1.4,3.96-3.96,3.96h-4.87c-2.56,0-3.96-1.4-3.96-3.96Z"/>
    <path class="cls-1" d="M769.68,403.13v-18.83h-4.21c-1.32,0-2.15-.74-2.15-2.06v-5.37c0-1.32.83-2.06,2.15-2.06h5.2l1.4-8.59c.33-1.73,1.49-2.64,3.22-2.64h4.05c1.9,0,2.89,1.07,2.89,2.89v8.34h9.58c1.32,0,2.06.74,2.06,2.06v5.37c0,1.32-.74,2.06-2.06,2.06h-9.58v19.24c0,3.14,1.57,4.38,3.47,4.38,2.15,0,3.55-1.65,3.55-3.88,0-.41,0-.91-.08-1.49-.17-1.49.33-2.23,1.73-2.23h5.04c1.07,0,1.98.41,2.31,1.65.33,1.24.5,2.56.5,3.22,0,9.16-6.52,12.96-14.2,12.96-7.18,0-14.86-3.3-14.86-15.03Z"/>
    <path class="cls-1" d="M801.96,396.03c0-12.22,10.07-22.13,23.53-22.13s23.53,9.91,23.53,22.13-10.07,22.13-23.53,22.13-23.53-9.83-23.53-22.13ZM836.89,396.11c0-6.69-5.04-11.81-11.39-11.81s-11.39,5.12-11.39,11.81,4.95,11.72,11.39,11.72,11.39-5.12,11.39-11.72Z"/>
    <path class="cls-1" d="M879.24,403.13v-18.83h-4.21c-1.32,0-2.15-.74-2.15-2.06v-5.37c0-1.32.83-2.06,2.15-2.06h5.2l1.4-8.59c.33-1.73,1.49-2.64,3.22-2.64h4.05c1.9,0,2.89,1.07,2.89,2.89v8.34h9.58c1.32,0,2.06.74,2.06,2.06v5.37c0,1.32-.74,2.06-2.06,2.06h-9.58v19.24c0,3.14,1.57,4.38,3.47,4.38,2.15,0,3.55-1.65,3.55-3.88,0-.41,0-.91-.08-1.49-.17-1.49.33-2.23,1.73-2.23h5.04c1.07,0,1.98.41,2.31,1.65.33,1.24.5,2.56.5,3.22,0,9.16-6.52,12.96-14.2,12.96-7.18,0-14.86-3.3-14.86-15.03Z"/>
    <path class="cls-1" d="M914.25,413.29v-51.77c0-2.56,1.4-3.96,3.96-3.96h4.87c2.56,0,3.96,1.4,3.96,3.96v20.06c2.06-4.87,6.61-7.68,12.88-7.68,11.39,0,15.52,8.92,15.52,18.91v20.48c0,2.56-1.49,3.96-4.05,3.96h-4.79c-2.56,0-3.96-1.4-3.96-3.96v-19.57c0-5.95-2.31-9.41-6.69-9.41s-8.92,3.39-8.92,11.31v17.67c0,2.56-1.4,3.96-3.96,3.96h-4.87c-2.56,0-3.96-1.4-3.96-3.96Z"/>
    <path class="cls-1" d="M962.47,396.2c0-11.97,9-22.29,23.28-22.29,12.06,0,21.96,7.27,22.54,20.81.08,2.39-1.57,3.47-4.05,3.47h-29.56c-.16,5.04,4.87,9.91,13.05,9.91,3.06,0,6.19-.74,9.41-2.56,2.23-1.24,4.05-1.07,5.61.83l.91,1.16c1.65,1.98,1.49,4.21-.74,5.86-4.87,3.55-10.57,4.79-16.02,4.79-15.19,0-24.44-9.83-24.44-21.96ZM996.32,391.08c-1.16-5.7-6.03-7.51-10.4-7.51s-9.5,1.98-10.9,7.51h21.3Z"/>
  </g>
</svg>