<?xml version="1.0" encoding="UTF-8"?>
<svg id="Layer_1" data-name="Layer 1" xmlns="http://www.w3.org/2000/svg" viewBox="0 0 1700.79 1700.79">
  <defs>
    <style>
      .cls-1 {
        fill: #fff;
      }
    </style>
  </defs>
  <path class="cls-1" d="M1255.31,614.42s-68.94-152.14-270.05-201.11c0,0-158.32-261.49-600.96-230.11,0,0,454.05,5.71,543.43,353.73l-304.76,77.5h632.34Z"/>
  <path class="cls-1" d="M838.35,508.4s-35.18-77.97-138.35-102.7c0,0-80.83-133.6-307.14-117.43,0,0,232.02,2.85,277.66,180.67l-155.94,39.94h323.3l.48-.48Z"/>
  <g>
    <path class="cls-1" d="M264.11,730.24c0,45.71-29.87,81.7-83.5,81.7h-55.07v68.38c0,11.16-6.12,17.28-17.28,17.28h-22.31c-11.16,0-17.64-6.12-17.64-17.28v-217.38c0-11.16,6.48-17.28,17.64-17.28h94.66c53.99,0,83.5,39.23,83.5,84.58ZM206.52,730.6c0-20.87-13.32-36.71-33.47-36.71h-47.51v72.7h47.51c20.15,0,33.47-15.83,33.47-35.99Z"/>
    <path class="cls-1" d="M323.13,661.86c0-16.56,11.88-29.15,33.47-29.15s33.47,12.6,33.47,29.15-12.96,28.79-33.47,28.79-33.47-12.6-33.47-28.79ZM328.89,880.32v-150.44c0-11.16,6.12-17.28,17.28-17.28h20.87c11.16,0,17.64,6.12,17.64,17.28v150.44c0,11.16-6.48,17.28-17.64,17.28h-20.87c-11.16,0-17.28-6.12-17.28-17.28Z"/>
    <path class="cls-1" d="M478.61,965.62c-9.72-5.04-11.52-14.04-6.12-23.75l4.32-7.92c5.4-10.08,13.32-11.88,23.39-6.48,14.04,7.2,29.15,11.52,45.35,11.52,31.31,0,53.63-16.92,53.63-53.63v-13.68c-13.32,20.51-35.63,29.87-59.74,29.87-52.19,0-88.54-43.55-88.54-96.45s36.35-96.45,88.54-96.45c24.11,0,45.71,9.36,59.02,30.23v-10.44c0-10.44,6.48-15.84,17.64-15.84h19.79c11.16,0,17.28,6.12,17.28,17.28v154.04c0,70.9-46.79,98.25-102.57,98.25-28.79,0-52.55-6.48-71.98-16.56ZM599.54,805.1c-.36-29.51-19.07-52.55-47.51-52.55s-46.43,24.11-46.43,52.55,17.64,52.55,46.43,52.55,47.15-23.03,47.51-52.55Z"/>
    <path class="cls-1" d="M718.67,805.82c0-52.19,39.23-97.17,101.49-97.17,52.55,0,95.74,31.67,98.25,90.7.36,10.44-6.84,15.12-17.64,15.12h-128.85c-.72,21.95,21.23,43.19,56.87,43.19,13.32,0,26.99-3.24,41.03-11.16,9.72-5.4,17.64-4.68,24.47,3.6l3.96,5.04c7.2,8.64,6.48,18.35-3.24,25.55-21.23,15.48-46.07,20.87-69.82,20.87-66.22,0-106.53-42.83-106.53-95.74ZM866.23,783.51c-5.04-24.83-26.27-32.75-45.35-32.75s-41.39,8.64-47.51,32.75h92.86Z"/>
    <path class="cls-1" d="M970.6,805.1c0-53.27,43.91-96.45,102.57-96.45s102.57,43.19,102.57,96.45-43.91,96.45-102.57,96.45-102.57-42.83-102.57-96.45ZM1122.84,805.46c0-29.15-21.95-51.47-49.67-51.47s-49.67,22.31-49.67,51.47,21.59,51.11,49.67,51.11,49.67-22.31,49.67-51.11Z"/>
    <path class="cls-1" d="M1240.89,880.32v-150.44c0-11.16,6.12-17.28,17.28-17.28h21.23c11.16,0,17.28,6.12,17.28,17.28v12.24c9-21.23,28.79-33.47,56.14-33.47,49.67,0,67.66,38.87,67.66,82.42v89.26c0,11.16-6.48,17.28-17.64,17.28h-20.87c-11.16,0-17.28-6.12-17.28-17.28v-85.3c0-25.91-10.08-41.03-29.15-41.03s-38.87,14.76-38.87,49.31v77.02c0,11.16-6.12,17.28-17.28,17.28h-21.23c-11.16,0-17.28-6.12-17.28-17.28Z"/>
    <path class="cls-1" d="M1486.34,864.49c-5.4-10.8.36-18.71,11.52-21.59l11.16-2.52c9.72-2.52,14.04,2.16,21.59,9.72,6.48,7.2,16.2,10.8,27.71,10.8,14.04,0,23.75-6.48,23.75-16.2,0-7.92-5.4-11.88-17.28-16.2l-22.67-7.92c-19.07-6.12-52.19-20.15-52.19-53.63s28.79-58.3,68.74-58.3c23.75,0,45.35,7.56,59.03,28.07,7.2,10.44,1.8,19.79-10.08,22.67l-10.08,2.52c-9.36,2.52-14.4-.72-20.88-6.84-5.04-5.04-11.52-6.84-18-6.84-11.52,0-18.71,7.2-18.71,15.84,0,7.92,7.2,11.88,16.92,15.12l23.03,8.64c38.15,12.6,51.83,33.11,52.55,55.78,0,38.87-34.55,57.95-74.5,57.95-32.75,0-59.38-12.24-71.62-37.07Z"/>
  </g>
  <g>
    <path class="cls-1" d="M323.46,1298.59c-7.91-18.26,1.83-31.05,20.7-35.92l26.18-6.09c17.05-4.26,26.18,3.04,35.92,18.87,14,22.53,40.79,37.75,76.71,37.75,41.4,0,68.8-18.26,68.8-46.27,0-21.31-16.44-38.36-48.71-49.32l-55.4-20.09c-50.53-16.44-112.63-54.19-113.24-119.94,0-77.93,67.58-126.64,150.99-126.64,66.36,0,113.24,29.22,136.38,77.93,9.13,17.66.61,31.66-17.66,37.14l-24.35,6.7c-17.05,4.87-27.4-1.83-37.75-16.44-10.96-18.26-29.83-28.01-55.4-28.01-30.44,0-56.62,15.22-56.62,43.23,0,15.22,6.7,31.66,44.45,45.66l55.4,20.09c83.41,28.01,114.46,71.84,115.68,125.42,0,83.41-71.23,127.85-161.95,127.85-79.76,0-137.6-35.31-160.12-91.93Z"/>
    <path class="cls-1" d="M842.18,1316.25l-43.84-80.37v118.72c0,18.87-10.35,29.22-29.22,29.22h-35.92c-18.87,0-29.22-10.35-29.22-29.22v-381.74c0-18.87,10.35-29.22,29.22-29.22h35.92c18.87,0,29.22,10.35,29.22,29.22v225.88l77.32-108.98c9.13-13.4,19.48-18.87,35.31-18.87h40.79c24.96,0,32.88,16.44,17.66,35.92l-84.02,108.98,40.18,65.15c15.22,23.14,26.18,31.66,45.66,31.66,3.65,0,10.96-.61,18.26-3.04,12.18-3.04,20.09-1.22,24.96,9.13l13.39,26.79c4.87,10.35,1.83,21.92-14,29.83-22.53,12.18-46.27,15.22-62.1,15.22-54.79,0-85.85-29.22-109.59-74.28Z"/>
    <path class="cls-1" d="M1107.03,1486.11l51.14-123.59-115.68-256.93c-9.13-20.09.61-34.7,22.53-34.7h41.4c17.05,0,28.62,7.31,34.09,23.74l63.93,169.86,64.54-169.86c6.09-16.44,17.66-23.74,34.1-23.74h39.57c21.92,0,31.05,14,22.53,34.7l-171.08,392.09c-6.7,15.83-17.66,22.53-34.1,22.53h-30.44c-21.92,0-31.05-14-22.53-34.09Z"/>
  </g>
  <g>
    <path class="cls-1" d="M884.02,929.84c0-7.34,5.26-12.92,14.84-12.92s14.84,5.58,14.84,12.92-5.74,12.76-14.84,12.76-14.84-5.58-14.84-12.76ZM886.58,1026.68v-66.68c0-4.95,2.71-7.66,7.66-7.66h9.25c4.95,0,7.82,2.71,7.82,7.66v66.68c0,4.95-2.87,7.66-7.82,7.66h-9.25c-4.95,0-7.66-2.71-7.66-7.66Z"/>
    <path class="cls-1" d="M931.24,1026.68v-66.68c0-4.95,2.71-7.66,7.66-7.66h9.41c4.95,0,7.66,2.71,7.66,7.66v5.42c3.99-9.41,12.76-14.84,24.89-14.84,22.02,0,29.99,17.23,29.99,36.53v39.56c0,4.95-2.87,7.66-7.82,7.66h-9.25c-4.95,0-7.66-2.71-7.66-7.66v-37.81c0-11.49-4.47-18.19-12.92-18.19s-17.23,6.54-17.23,21.86v34.14c0,4.95-2.71,7.66-7.66,7.66h-9.41c-4.95,0-7.66-2.71-7.66-7.66Z"/>
    <path class="cls-1" d="M1033.82,1007.05v-36.37h-8.14c-2.55,0-4.15-1.43-4.15-3.99v-10.37c0-2.55,1.6-3.99,4.15-3.99h10.05l2.71-16.59c.64-3.35,2.87-5.1,6.22-5.1h7.82c3.67,0,5.58,2.07,5.58,5.58v16.11h18.51c2.55,0,3.99,1.44,3.99,3.99v10.37c0,2.55-1.44,3.99-3.99,3.99h-18.51v37.17c0,6.06,3.03,8.46,6.7,8.46,4.15,0,6.86-3.19,6.86-7.5,0-.8,0-1.76-.16-2.87-.32-2.87.64-4.31,3.35-4.31h9.73c2.07,0,3.83.8,4.47,3.19.64,2.39.96,4.95.96,6.22,0,17.71-12.6,25.05-27.44,25.05-13.88,0-28.71-6.38-28.71-29.04Z"/>
    <path class="cls-1" d="M1096.19,993.33c0-23.61,19.46-42.75,45.47-42.75s45.47,19.14,45.47,42.75-19.46,42.75-45.47,42.75-45.47-18.98-45.47-42.75ZM1163.67,993.49c0-12.92-9.73-22.81-22.02-22.81s-22.01,9.89-22.01,22.81,9.57,22.65,22.01,22.65,22.02-9.89,22.02-22.65Z"/>
    <path class="cls-1" d="M1245.51,1007.05v-36.37h-8.14c-2.55,0-4.15-1.43-4.15-3.99v-10.37c0-2.55,1.6-3.99,4.15-3.99h10.05l2.71-16.59c.64-3.35,2.87-5.1,6.22-5.1h7.82c3.67,0,5.58,2.07,5.58,5.58v16.11h18.51c2.55,0,3.99,1.44,3.99,3.99v10.37c0,2.55-1.44,3.99-3.99,3.99h-18.51v37.17c0,6.06,3.03,8.46,6.7,8.46,4.15,0,6.86-3.19,6.86-7.5,0-.8,0-1.76-.16-2.87-.32-2.87.64-4.31,3.35-4.31h9.73c2.07,0,3.83.8,4.47,3.19.64,2.39.96,4.95.96,6.22,0,17.71-12.6,25.05-27.44,25.05-13.88,0-28.71-6.38-28.71-29.04Z"/>
    <path class="cls-1" d="M1313.15,1026.68v-100.03c0-4.95,2.71-7.66,7.66-7.66h9.41c4.95,0,7.66,2.71,7.66,7.66v38.77c3.99-9.41,12.76-14.84,24.89-14.84,22.02,0,29.99,17.23,29.99,36.53v39.56c0,4.95-2.87,7.66-7.82,7.66h-9.25c-4.95,0-7.66-2.71-7.66-7.66v-37.81c0-11.49-4.47-18.19-12.92-18.19s-17.23,6.54-17.23,21.86v34.14c0,4.95-2.71,7.66-7.66,7.66h-9.41c-4.95,0-7.66-2.71-7.66-7.66Z"/>
    <path class="cls-1" d="M1406.31,993.65c0-23.13,17.39-43.07,44.99-43.07,23.29,0,42.44,14.04,43.55,40.2.16,4.63-3.03,6.7-7.82,6.7h-57.11c-.32,9.73,9.41,19.14,25.21,19.14,5.9,0,11.97-1.43,18.19-4.95,4.31-2.39,7.82-2.07,10.85,1.6l1.75,2.23c3.19,3.83,2.87,8.14-1.43,11.33-9.41,6.86-20.42,9.25-30.95,9.25-29.35,0-47.22-18.98-47.22-42.44ZM1471.71,983.76c-2.23-11.01-11.64-14.52-20.1-14.52s-18.35,3.83-21.06,14.52h41.16Z"/>
  </g>
</svg>