<?xml version="1.0" encoding="UTF-8"?>
<svg id="Layer_1" data-name="Layer 1" xmlns="http://www.w3.org/2000/svg" viewBox="0 0 1700.79 1700.79">
  <defs>
    <style>
      .cls-1 {
        fill: #9d9d9c;
      }

      .cls-2 {
        fill: #578ec2;
      }
    </style>
  </defs>
  <path class="cls-1" d="M1645.01,968.14s-125.79-277.6-492.73-366.95c0,0-288.87-477.12-1096.5-419.86,0,0,828.45,10.41,991.54,645.41l-556.06,141.4h1153.76Z"/>
  <path class="cls-1" d="M884.23,774.69s-64.19-142.27-252.44-187.38c0,0-147.47-243.76-560.4-214.27,0,0,423.33,5.2,506.61,329.65l-284.54,72.87h589.89l.87-.87Z"/>
  <g>
    <path class="cls-2" d="M386.23,1219.31c0,75.9-49.63,135.45-140.12,135.45h-82.91v100.42c0,20.43-11.68,31.53-31.53,31.53h-44.37c-20.43,0-31.53-11.09-31.53-31.53v-345.64c0-20.43,11.09-31.53,31.53-31.53h158.81c91.08,0,140.12,65.39,140.12,141.29ZM278.22,1219.89c0-27.44-18.1-50.21-44.96-50.21h-70.06v99.84h70.06c26.86,0,44.96-23.35,44.96-49.63Z"/>
    <path class="cls-2" d="M439.95,1455.18v-345.64c0-20.43,11.09-31.53,31.53-31.53h44.37c19.85,0,31.53,11.09,31.53,31.53v345.64c0,20.43-11.68,31.53-31.53,31.53h-44.37c-20.43,0-31.53-11.09-31.53-31.53Z"/>
    <path class="cls-2" d="M936.8,1109.54v28.61c0,20.43-11.09,31.53-31.53,31.53h-85.83v285.5c0,20.43-11.09,31.53-31.53,31.53h-42.04c-20.43,0-31.53-11.09-31.53-31.53v-285.5h-83.49c-20.43,0-31.53-11.09-31.53-31.53v-28.61c0-20.43,11.09-31.53,31.53-31.53h274.41c20.43,0,31.53,11.09,31.53,31.53Z"/>
    <path class="cls-2" d="M1297.03,1109.54v28.61c0,20.43-11.09,31.53-31.53,31.53h-85.83v285.5c0,20.43-11.09,31.53-31.53,31.53h-42.04c-20.43,0-31.53-11.09-31.53-31.53v-285.5h-83.49c-20.43,0-31.53-11.09-31.53-31.53v-28.61c0-20.43,11.09-31.53,31.53-31.53h274.41c20.43,0,31.53,11.09,31.53,31.53Z"/>
    <path class="cls-2" d="M1326.23,1402.64c-7.59-19.85,2.92-33.86,22.77-38.53l29.19-7.01c18.1-4.09,28.02,3.5,38.53,20.43,12.84,19.85,35.62,32.11,67.14,32.11,33.86,0,56.63-13.43,56.63-37.37,0-15.18-9.93-29.78-40.28-39.7l-49.63-18.1c-34.45-11.09-113.27-42.62-114.43-117.35,0-76.48,65.39-125.53,150.05-125.53,63.64,0,108.01,26.86,132.53,72.98,10.51,19.27,1.17,34.45-18.68,40.28l-27.44,7.59c-18.1,5.25-28.61-1.75-40.87-16.93-8.76-12.85-23.35-20.43-43.79-20.43-24.52,0-46.71,11.68-46.71,33.86,0,12.85,7.59,26.27,38.53,37.37l49.04,17.52c85.24,29.19,115.02,70.06,116.19,124.36,0,83.49-72.98,124.94-161.14,124.94-78.23,0-134.87-33.86-157.64-90.5Z"/>
  </g>
</svg>