<svg id="Capa_1" enable-background="new 0 0 512 512" height="512" viewBox="0 0 512 512" width="512" xmlns="http://www.w3.org/2000/svg"><g><path d="m178 163.222c0-34.313-19.513-64.149-48.021-79.002 6.954-8.857 11.117-20.006 11.117-32.115 0-28.731-23.37-52.105-52.096-52.105s-52.096 23.374-52.096 52.105c0 12.109 4.163 23.257 11.117 32.115-28.508 14.853-48.021 44.689-48.021 79.002 0 8.286 6.716 15.003 15 15.003h148c8.284 0 15-6.717 15-15.003z"/><path d="m463.979 84.22c6.954-8.857 11.117-20.006 11.117-32.115 0-28.731-23.37-52.105-52.096-52.105s-52.096 23.374-52.096 52.105c0 12.109 4.163 23.257 11.117 32.115-28.508 14.853-48.021 44.689-48.021 79.002 0 8.286 6.716 15.003 15 15.003h148c8.284 0 15-6.717 15-15.003 0-34.313-19.513-64.149-48.021-79.002z"/><path d="m296.979 417.995c6.954-8.857 11.117-20.005 11.117-32.115 0-28.731-23.37-52.105-52.096-52.105s-52.096 23.375-52.096 52.105c0 12.109 4.163 23.257 11.117 32.115-28.508 14.853-48.021 44.689-48.021 79.002 0 8.286 6.716 15.003 15 15.003h148c8.284 0 15-6.717 15-15.003 0-34.313-19.513-64.149-48.021-79.002z"/><path d="m423.716 208.539c-8.284 0-15 6.717-15 15.003v17.253h-304.716v-17.253c0-8.286-6.716-15.003-15-15.003s-15 6.717-15 15.003v32.256c0 8.286 6.716 15.003 15 15.003h152v17.253c0 8.286 6.716 15.003 15 15.003s15-6.717 15-15.003v-17.253h152.716c8.284 0 15-6.717 15-15.003v-32.256c0-8.286-6.716-15.003-15-15.003z"/></g></svg>